# xmcd
#
# Track frame offsets: 
#        150
#        13935
#        29515
#        51325
#        67400
#        79470
#        99755
#        111187
#        125585
#        142992
#
# Disc length: 2214 seconds
#
# Revision: 3
# Processed by: cddbd v1.5.2PL0 Copyright (c) Steve Scherf et al.
# Submitted via: ExactAudioCopy v0.99pb5
#
DISCID=9108a40a
DTITLE=Canned Heat - One More River To Cross
DYEAR=1973
DGENRE=Blues
TTITLE0=One More River To Cross
TTITLE1=L.A. Town
TTITLE2=I Need Someone
TTITLE3=Bagful Of Boogie
TTITLE4=I'm A Hog For You, Baby
TTITLE5=You Am What You Am
TTITLE6=Shake, Rattle and Roll
TTITLE7=Bright Times Are Comin'
TTITLE8=Highway 401
TTITLE9=We Remember Fats
EXTD=1973 Atlantic records - 1995 Repertoire Records YEAR: 1973
EXTT0=
EXTT1=
EXTT2=
EXTT3=
EXTT4=
EXTT5=
EXTT6=
EXTT7=
EXTT8=
EXTT9=
PLAYORDER=
